<svg xmlns="http://www.w3.org/2000/svg" width="660" height="582" viewBox="0 0 660 582" font-family="system-ui, -apple-system, Segoe UI, Roboto, sans-serif">
<rect width="660" height="582" fill="#ffffff"/>
<text x="68" y="24" font-size="15" font-weight="600" fill="#222222">Batch-size sweep — tencent/hy3:free</text>
<text x="68" y="42" font-size="11" fill="#888888">run 2026-07-17</text>
<text x="68" y="58" font-size="12" font-weight="600" fill="#222222">Accuracy</text>
<line x1="68" y1="74" x2="626" y2="74" stroke="#e5e5e5"/>
<line x1="68" y1="194" x2="626" y2="194" stroke="#e5e5e5"/>
<text x="60" y="78" font-size="10" text-anchor="end" fill="#222222">99%</text>
<text x="60" y="198" font-size="10" text-anchor="end" fill="#222222">60%</text>
<line x1="68" y1="148.9" x2="626" y2="148.9" stroke="#e5e5e5" stroke-dasharray="3 3"/>
<text x="60" y="152.9" font-size="10" text-anchor="end" fill="#888888">90%</text>
<polyline points="68.0,142.8 96.3,162.1 131.6,139.5 202.2,139.5 343.5,139.5 626.0,151.4" fill="none" stroke="#E69F00" stroke-width="2"/>
<circle cx="68.0" cy="142.8" r="3.5" fill="#E69F00"/>
<text x="68.0" y="133.8" font-size="9.5" text-anchor="start" fill="#222222">92%</text>
<circle cx="96.3" cy="162.1" r="3.5" fill="#E69F00"/>
<text x="96.3" y="153.1" font-size="9.5" text-anchor="middle" fill="#222222">85%</text>
<circle cx="131.6" cy="139.5" r="3.5" fill="#E69F00"/>
<text x="131.6" y="130.5" font-size="9.5" text-anchor="middle" fill="#222222">93%</text>
<circle cx="202.2" cy="139.5" r="3.5" fill="#E69F00"/>
<text x="202.2" y="130.5" font-size="9.5" text-anchor="middle" fill="#222222">93%</text>
<circle cx="343.5" cy="139.5" r="3.5" fill="#E69F00"/>
<text x="343.5" y="130.5" font-size="9.5" text-anchor="middle" fill="#222222">93%</text>
<circle cx="626.0" cy="151.4" r="3.5" fill="#E69F00"/>
<text x="626.0" y="142.4" font-size="9.5" text-anchor="end" fill="#222222">89%</text>
<text x="68" y="230" font-size="12" font-weight="600" fill="#222222">Cost (USD)</text>
<line x1="68" y1="246" x2="626" y2="246" stroke="#e5e5e5"/>
<line x1="68" y1="366" x2="626" y2="366" stroke="#e5e5e5"/>
<text x="60" y="250" font-size="10" text-anchor="end" fill="#222222">$0.0001</text>
<text x="60" y="370" font-size="10" text-anchor="end" fill="#222222">$0.0000</text>
<polyline points="68.0,366.0 96.3,366.0 131.6,366.0 202.2,366.0 343.5,366.0 626.0,366.0" fill="none" stroke="#E69F00" stroke-width="2"/>
<circle cx="68.0" cy="366.0" r="3.5" fill="#E69F00"/>
<text x="68.0" y="357.0" font-size="9.5" text-anchor="start" fill="#222222">$0.0000</text>
<circle cx="96.3" cy="366.0" r="3.5" fill="#E69F00"/>
<text x="96.3" y="357.0" font-size="9.5" text-anchor="middle" fill="#222222">$0.0000</text>
<circle cx="131.6" cy="366.0" r="3.5" fill="#E69F00"/>
<text x="131.6" y="357.0" font-size="9.5" text-anchor="middle" fill="#222222">$0.0000</text>
<circle cx="202.2" cy="366.0" r="3.5" fill="#E69F00"/>
<text x="202.2" y="357.0" font-size="9.5" text-anchor="middle" fill="#222222">$0.0000</text>
<circle cx="343.5" cy="366.0" r="3.5" fill="#E69F00"/>
<text x="343.5" y="357.0" font-size="9.5" text-anchor="middle" fill="#222222">$0.0000</text>
<circle cx="626.0" cy="366.0" r="3.5" fill="#E69F00"/>
<text x="626.0" y="357.0" font-size="9.5" text-anchor="end" fill="#222222">$0.0000</text>
<text x="68" y="402" font-size="12" font-weight="600" fill="#222222">Time (s)</text>
<line x1="68" y1="418" x2="626" y2="418" stroke="#e5e5e5"/>
<line x1="68" y1="538" x2="626" y2="538" stroke="#e5e5e5"/>
<text x="60" y="422" font-size="10" text-anchor="end" fill="#222222">400s</text>
<text x="60" y="542" font-size="10" text-anchor="end" fill="#222222">0s</text>
<polyline points="68.0,444.8 96.3,503.5 131.6,535.0 202.2,522.3 343.5,536.3 626.0,464.8" fill="none" stroke="#E69F00" stroke-width="2"/>
<circle cx="68.0" cy="444.8" r="3.5" fill="#E69F00"/>
<text x="68.0" y="435.8" font-size="9.5" text-anchor="start" fill="#222222">311s</text>
<circle cx="96.3" cy="503.5" r="3.5" fill="#E69F00"/>
<text x="96.3" y="494.5" font-size="9.5" text-anchor="middle" fill="#222222">115s</text>
<circle cx="131.6" cy="535.0" r="3.5" fill="#E69F00"/>
<text x="131.6" y="526.0" font-size="9.5" text-anchor="middle" fill="#222222">10s</text>
<circle cx="202.2" cy="522.3" r="3.5" fill="#E69F00"/>
<text x="202.2" y="513.3" font-size="9.5" text-anchor="middle" fill="#222222">53s</text>
<circle cx="343.5" cy="536.3" r="3.5" fill="#E69F00"/>
<text x="343.5" y="527.3" font-size="9.5" text-anchor="middle" fill="#222222">6s</text>
<circle cx="626.0" cy="464.8" r="3.5" fill="#E69F00"/>
<text x="626.0" y="455.8" font-size="9.5" text-anchor="end" fill="#222222">244s</text>
<text x="68.0" y="560" font-size="11" text-anchor="middle" fill="#222222">1</text>
<text x="96.3" y="560" font-size="11" text-anchor="middle" fill="#222222">5</text>
<text x="131.6" y="560" font-size="11" text-anchor="middle" fill="#222222">10</text>
<text x="202.2" y="560" font-size="11" text-anchor="middle" fill="#222222">20</text>
<text x="343.5" y="560" font-size="11" text-anchor="middle" fill="#222222">40</text>
<text x="626.0" y="560" font-size="11" text-anchor="middle" fill="#222222">80</text>
<text x="347" y="580" font-size="12" text-anchor="middle" fill="#222222">Batch size (rows per model call)</text>
</svg>