<svg xmlns="http://www.w3.org/2000/svg" width="640" height="540" viewBox="0 0 640 540" font-family="system-ui, -apple-system, Segoe UI, Roboto, sans-serif">
<rect width="640" height="540" fill="#ffffff"/>
<text x="64" y="24" font-size="15" font-weight="600" fill="#222222">Batch-size sweep — gpt-5.4-mini</text>
<text x="64" y="42" font-size="11" fill="#888888">Illustrative example — placeholder data, not measured (see benchmarks/README.md)</text>
<text x="64" y="54" font-size="12" font-weight="600" fill="#222222">Accuracy</text>
<line x1="64" y1="60" x2="616" y2="60" stroke="#e5e5e5"/>
<line x1="64" y1="180" x2="616" y2="180" stroke="#e5e5e5"/>
<text x="56" y="64" font-size="10" text-anchor="end" fill="#222222">100%</text>
<text x="56" y="184" font-size="10" text-anchor="end" fill="#222222">0</text>
<polyline points="64.0,80.0 91.9,75.0 126.9,75.0 196.8,75.0 336.5,85.0 616.0,90.0" fill="none" stroke="#009E73" stroke-width="2"/>
<circle cx="64.0" cy="80.0" r="3.5" fill="#009E73"/>
<circle cx="91.9" cy="75.0" r="3.5" fill="#009E73"/>
<circle cx="126.9" cy="75.0" r="3.5" fill="#009E73"/>
<circle cx="196.8" cy="75.0" r="3.5" fill="#009E73"/>
<circle cx="336.5" cy="85.0" r="3.5" fill="#009E73"/>
<circle cx="616.0" cy="90.0" r="3.5" fill="#009E73"/>
<text x="64" y="214" font-size="12" font-weight="600" fill="#222222">Cost (USD)</text>
<line x1="64" y1="220" x2="616" y2="220" stroke="#e5e5e5"/>
<line x1="64" y1="340" x2="616" y2="340" stroke="#e5e5e5"/>
<text x="56" y="224" font-size="10" text-anchor="end" fill="#222222">$0.0250</text>
<text x="56" y="344" font-size="10" text-anchor="end" fill="#222222">0</text>
<polyline points="64.0,242.7 91.9,319.7 126.9,327.8 196.8,331.9 336.5,335.9 616.0,335.9" fill="none" stroke="#009E73" stroke-width="2"/>
<circle cx="64.0" cy="242.7" r="3.5" fill="#009E73"/>
<circle cx="91.9" cy="319.7" r="3.5" fill="#009E73"/>
<circle cx="126.9" cy="327.8" r="3.5" fill="#009E73"/>
<circle cx="196.8" cy="331.9" r="3.5" fill="#009E73"/>
<circle cx="336.5" cy="335.9" r="3.5" fill="#009E73"/>
<circle cx="616.0" cy="335.9" r="3.5" fill="#009E73"/>
<text x="64" y="374" font-size="12" font-weight="600" fill="#222222">Time (s)</text>
<line x1="64" y1="380" x2="616" y2="380" stroke="#e5e5e5"/>
<line x1="64" y1="500" x2="616" y2="500" stroke="#e5e5e5"/>
<text x="56" y="384" font-size="10" text-anchor="end" fill="#222222">25s</text>
<text x="56" y="504" font-size="10" text-anchor="end" fill="#222222">0</text>
<polyline points="64.0,396.3 91.9,478.4 126.9,487.0 196.8,491.4 336.5,495.7 616.0,495.7" fill="none" stroke="#009E73" stroke-width="2"/>
<circle cx="64.0" cy="396.3" r="3.5" fill="#009E73"/>
<circle cx="91.9" cy="478.4" r="3.5" fill="#009E73"/>
<circle cx="126.9" cy="487.0" r="3.5" fill="#009E73"/>
<circle cx="196.8" cy="491.4" r="3.5" fill="#009E73"/>
<circle cx="336.5" cy="495.7" r="3.5" fill="#009E73"/>
<circle cx="616.0" cy="495.7" r="3.5" fill="#009E73"/>
<text x="64.0" y="520" font-size="11" text-anchor="middle" fill="#222222">1</text>
<text x="91.9" y="520" font-size="11" text-anchor="middle" fill="#222222">5</text>
<text x="126.9" y="520" font-size="11" text-anchor="middle" fill="#222222">10</text>
<text x="196.8" y="520" font-size="11" text-anchor="middle" fill="#222222">20</text>
<text x="336.5" y="520" font-size="11" text-anchor="middle" fill="#222222">40</text>
<text x="616.0" y="520" font-size="11" text-anchor="middle" fill="#222222">80</text>
<text x="340" y="540" font-size="12" text-anchor="middle" fill="#222222">Batch size (rows per model call)</text>
</svg>