<svg xmlns="http://www.w3.org/2000/svg" width="760" height="480" viewBox="0 0 760 480" font-family="system-ui, -apple-system, Segoe UI, Roboto, sans-serif">
<rect width="760" height="480" fill="#ffffff"/>
<text x="64" y="24" font-size="15" font-weight="600" fill="#222222">Accuracy vs cost per task (batch 20)</text>
<text x="64" y="42" font-size="11" fill="#888888">120-row subset · labels: gemini-2.5-pro · single run · OpenAI scored vs a Gemini labeller</text>
<line x1="64" y1="424.0" x2="610" y2="424.0" stroke="#e5e5e5"/>
<text x="56" y="428.0" font-size="11" text-anchor="end" fill="#222222">0%</text>
<line x1="64" y1="333.0" x2="610" y2="333.0" stroke="#e5e5e5"/>
<text x="56" y="337.0" font-size="11" text-anchor="end" fill="#222222">25%</text>
<line x1="64" y1="242.0" x2="610" y2="242.0" stroke="#e5e5e5"/>
<text x="56" y="246.0" font-size="11" text-anchor="end" fill="#222222">50%</text>
<line x1="64" y1="151.0" x2="610" y2="151.0" stroke="#e5e5e5"/>
<text x="56" y="155.0" font-size="11" text-anchor="end" fill="#222222">75%</text>
<line x1="64" y1="60.0" x2="610" y2="60.0" stroke="#e5e5e5"/>
<text x="56" y="64.0" font-size="11" text-anchor="end" fill="#222222">100%</text>
<line x1="64.0" y1="60" x2="64.0" y2="424" stroke="#e5e5e5"/>
<text x="64.0" y="442" font-size="11" text-anchor="middle" fill="#222222">$0.0000</text>
<line x1="200.5" y1="60" x2="200.5" y2="424" stroke="#e5e5e5"/>
<text x="200.5" y="442" font-size="11" text-anchor="middle" fill="#222222">$0.0500</text>
<line x1="337.0" y1="60" x2="337.0" y2="424" stroke="#e5e5e5"/>
<text x="337.0" y="442" font-size="11" text-anchor="middle" fill="#222222">$0.1000</text>
<line x1="473.5" y1="60" x2="473.5" y2="424" stroke="#e5e5e5"/>
<text x="473.5" y="442" font-size="11" text-anchor="middle" fill="#222222">$0.1500</text>
<line x1="610.0" y1="60" x2="610.0" y2="424" stroke="#e5e5e5"/>
<text x="610.0" y="442" font-size="11" text-anchor="middle" fill="#222222">$0.2000</text>
<text x="337" y="468" font-size="12" text-anchor="middle" fill="#222222">Average cost per task (USD)</text>
<circle cx="112.1" cy="75.2" r="5" fill="#0072B2"/>
<text x="120.1" y="79.2" font-size="11" fill="#0072B2">gemini-3.1-flash-lite</text>
<circle cx="416.4" cy="78.2" r="5" fill="#0072B2"/>
<text x="424.4" y="82.2" font-size="11" fill="#0072B2">gemini-3.5-flash</text>
<circle cx="401.1" cy="78.2" r="5" fill="#0072B2"/>
<text x="409.1" y="82.2" font-size="11" fill="#0072B2">gemini-3.1-pro-preview</text>
<circle cx="98.9" cy="99.4" r="5" fill="#009E73"/>
<text x="106.9" y="103.4" font-size="11" fill="#009E73">gpt-5.4-mini</text>
</svg>