<svg xmlns="http://www.w3.org/2000/svg" width="760" height="480" viewBox="0 0 760 480" font-family="system-ui, -apple-system, Segoe UI, Roboto, sans-serif">
<rect width="760" height="480" fill="#ffffff"/>
<text x="64" y="24" font-size="15" font-weight="600" fill="#222222">Accuracy vs cost per task (batch 5)</text>
<text x="64" y="42" font-size="11" fill="#888888">OpenRouter :free models, 120-row fixture, 2026-07-17</text>
<line x1="64" y1="424.0" x2="610" y2="424.0" stroke="#e5e5e5"/>
<text x="56" y="428.0" font-size="11" text-anchor="end" fill="#222222">0%</text>
<line x1="64" y1="333.0" x2="610" y2="333.0" stroke="#e5e5e5"/>
<text x="56" y="337.0" font-size="11" text-anchor="end" fill="#222222">25%</text>
<line x1="64" y1="242.0" x2="610" y2="242.0" stroke="#e5e5e5"/>
<text x="56" y="246.0" font-size="11" text-anchor="end" fill="#222222">50%</text>
<line x1="64" y1="151.0" x2="610" y2="151.0" stroke="#e5e5e5"/>
<text x="56" y="155.0" font-size="11" text-anchor="end" fill="#222222">75%</text>
<line x1="64" y1="60.0" x2="610" y2="60.0" stroke="#e5e5e5"/>
<text x="56" y="64.0" font-size="11" text-anchor="end" fill="#222222">100%</text>
<line x1="64.0" y1="60" x2="64.0" y2="424" stroke="#e5e5e5"/>
<text x="64.0" y="442" font-size="11" text-anchor="middle" fill="#222222">$0.0000</text>
<line x1="200.5" y1="60" x2="200.5" y2="424" stroke="#e5e5e5"/>
<text x="200.5" y="442" font-size="11" text-anchor="middle" fill="#222222">$0.0000</text>
<line x1="337.0" y1="60" x2="337.0" y2="424" stroke="#e5e5e5"/>
<text x="337.0" y="442" font-size="11" text-anchor="middle" fill="#222222">$0.0001</text>
<line x1="473.5" y1="60" x2="473.5" y2="424" stroke="#e5e5e5"/>
<text x="473.5" y="442" font-size="11" text-anchor="middle" fill="#222222">$0.0001</text>
<line x1="610.0" y1="60" x2="610.0" y2="424" stroke="#e5e5e5"/>
<text x="610.0" y="442" font-size="11" text-anchor="middle" fill="#222222">$0.0001</text>
<text x="337" y="468" font-size="12" text-anchor="middle" fill="#222222">Average cost per task (USD)</text>
<circle cx="64.0" cy="114.6" r="5" fill="#E69F00"/>
<text x="72.0" y="118.6" font-size="11" fill="#E69F00">tencent/hy3:free</text>
<circle cx="64.0" cy="75.2" r="5" fill="#E69F00"/>
<text x="72.0" y="79.2" font-size="11" fill="#E69F00">cohere/north-mini-code:free</text>
</svg>