<svg xmlns="http://www.w3.org/2000/svg" viewBox="0 0 360 230" width="360" height="230" font-family="Inter, ui-sans-serif, system-ui, sans-serif">
  <!-- TamedTable feature illustration: Lazy AI — a big file opens as a shuffled sample -->
  <rect x="2" y="2" width="356" height="226" rx="16" fill="#FFFFFF" stroke="#DCDCDC"/>
  <!-- dimmed table behind the dialog -->
  <g opacity="0.35">
    <path d="M18 26 q0 -6 6 -6 h312 q6 0 6 6 v20 h-324 Z" fill="#281C60"/>
    <text x="32" y="41" font-size="12" font-weight="600" fill="#FFFFFF">product</text>
    <text x="220" y="41" font-size="12" font-weight="600" fill="#FFFFFF">price</text>
    <g font-size="12" fill="#281C60">
      <rect x="18" y="46" width="324" height="24" fill="#FFFFFF"/>
      <text x="32" y="62">Travel Espresso Kit</text>
      <text x="220" y="62" font-family="JetBrains Mono, ui-monospace, monospace">64.90</text>
      <rect x="18" y="70" width="324" height="24" fill="#F6F2EB"/>
      <text x="32" y="86">Wool Scarf XL</text>
      <text x="220" y="86" font-family="JetBrains Mono, ui-monospace, monospace">29.50</text>
      <rect x="18" y="94" width="324" height="24" fill="#FFFFFF"/>
      <text x="32" y="110">Gaming Mouse Lite</text>
      <text x="220" y="110" font-family="JetBrains Mono, ui-monospace, monospace">42.00</text>
    </g>
    <rect x="18" y="20" width="324" height="98" rx="6" fill="none" stroke="#DCDCDC"/>
  </g>
  <!-- the large-file dialog -->
  <g>
    <rect x="48" y="84" width="264" height="122" rx="12" fill="#FFFFFF" stroke="#281C60"/>
    <text x="66" y="110" font-size="13" font-weight="700" fill="#281C60">25,000 rows — sample it?</text>
    <text x="66" y="128" font-size="11" fill="#6A6280">Work on a page at a time; save keeps every row.</text>
    <!-- radio: shuffled sample (selected) -->
    <circle cx="76" cy="148" r="7" fill="#FFFFFF" stroke="#281C60"/>
    <circle cx="76" cy="148" r="3.5" fill="#281C60"/>
    <text x="90" y="152" font-size="12" font-weight="600" fill="#281C60">Shuffled sample</text>
    <path d="M232 144 h14 l6 6 m0 -6 l-6 6 h-14" stroke="#96BED7" stroke-width="1.8" fill="none" stroke-linecap="round" stroke-linejoin="round"/>
    <!-- radio: original order -->
    <circle cx="76" cy="172" r="7" fill="#FFFFFF" stroke="#B8B0C8"/>
    <text x="90" y="176" font-size="12" fill="#6A6280">Original order</text>
    <!-- confirm button -->
    <rect x="228" y="180" width="66" height="16" rx="8" fill="#281C60"/>
    <text x="242" y="191.5" font-size="10" font-weight="600" fill="#FFFFFF">Open</text>
  </g>
</svg>
